<svg xmlns="http://www.w3.org/2000/svg" width="512" height="512" viewBox="0 0 24 24"><path fill="#5A5C9A" d="M6.385 19.308v-5.462q0-.69.462-1.153q.463-.462 1.153-.462h.885v-2.077H8q-.69 0-1.153-.463t-.462-1.153V6.192q0-.69.462-1.153Q7.31 4.577 8 4.577h8q.69 0 1.153.462t.462 1.153v2.346q0 .69-.462 1.153T16 10.154h-.885v2.077H16q.69 0 1.153.462t.462 1.153v5.462q0 .213-.143.356t-.357.144q-.213 0-.356-.144t-.144-.356v-2.5h-9.23v2.5q0 .213-.144.356t-.356.144q-.214 0-.357-.144t-.143-.356Zm3.5-7.077h4.23v-2.077h-4.23v2.077Z"/></svg>